<svg version="1.1" id="Layer_1" xmlns="http://www.w3.org/2000/svg" x="0" y="0" viewBox="0 0 256 256" style="enable-background:new 0 0 256 256" xml:space="preserve"><style>.st8{fill:#491352}</style><path d="M243.691 136.288a1.534 1.534 0 0 1-.278-2.277c4.429-5.065 6.517-12.225 4.53-19.814-2.434-9.298-11.051-15.641-20.663-15.634-1.092.001-1.834-1.076-1.479-2.109a27.939 27.939 0 0 0 1.428-11.129c-.904-12.376-10.102-22.814-22.26-25.295a27.86 27.86 0 0 0-10.545-.129c-.823.148-1.588-.412-1.76-1.231-3.447-16.373-17.967-28.667-35.366-28.667-11.358 0-21.486 5.243-28.112 13.435a1.528 1.528 0 0 1-2.378 0c-6.626-8.193-16.754-13.435-28.112-13.435-17.399 0-31.919 12.294-35.366 28.667-.172.818-.937 1.379-1.76 1.231a27.839 27.839 0 0 0-10.545.129c-12.158 2.481-21.357 12.919-22.26 25.295a27.924 27.924 0 0 0 1.592 11.595 1.223 1.223 0 0 1-1.151 1.644c-11.866-.008-21.858 9.432-21.909 21.297a21.283 21.283 0 0 0 5.284 14.15 1.534 1.534 0 0 1-.278 2.277c-5.405 3.796-8.874 10.159-8.602 17.327.416 10.953 9.808 19.437 20.769 19.437h190.05l-.005.002c-1.59 9.25-6.57 24.33-20.95 45.46-2.78 4.08 2.2 9.16 6.59 6.92 14.99-7.63 46.39-40.75 51.69-68.32 0-.03 0-.05.01-.08l-.017.007c.242-1.111.41-2.251.455-3.426.272-7.168-3.197-13.531-8.602-17.327z" style="fill:#f85252"/><path id="XMLID_843_" d="M129.216 85.002H85.463a5 5 0 0 0-5 5v43.753a5 5 0 0 0 5 5h43.753a5 5 0 0 0 5-5V90.002a5 5 0 0 0-5-5z" style="fill:#fff"/><path d="M124.635 99.585v24.59c0 2.76-2.24 5-5 5h-24.59c-2.76 0-5-2.24-5-5v-24.59c0-2.76 2.24-5 5-5h24.59c2.76 0 5 2.24 5 5z" style="fill:#1c868e"/><path d="M124.635 99.585v24.59c0 2.76-2.24 5-5 5h-13.83c-2.76 0-5-2.24-5-5v-24.59c0-2.76 2.24-5 5-5h13.83c2.76 0 5 2.24 5 5z" style="fill:#40c4df"/><path d="M118.105 35.655c-1.76 1.74-3.57 2.8-5.41 2.8-17.4 0-31.92 12.29-35.37 28.67-.17.82-.93 1.38-1.76 1.23-3.34-.6-6.89-.62-10.54.13-12.16 2.48-21.36 12.92-22.26 25.29-.3 4.1.29 8.02 1.59 11.6.29.8-.3 1.64-1.15 1.64-11.87-.01-21.86 9.43-21.91 21.3a21.324 21.324 0 0 0 5.28 14.15c.61.69.48 1.75-.28 2.28-5.4 3.79-8.87 10.16-8.6 17.32.15 4.02 1.52 7.71 3.72 10.77-9.6-1.4-17.34-9.3-17.72-19.22-.27-7.17 3.2-13.53 8.6-17.33.76-.53.89-1.58.28-2.27-3.3-3.78-5.3-8.73-5.28-14.15.05-11.87 10.04-21.31 21.91-21.3.85 0 1.44-.84 1.15-1.65-1.3-3.58-1.89-7.5-1.59-11.59.9-12.38 10.1-22.81 22.26-25.3 3.65-.74 7.2-.72 10.54-.12.83.14 1.59-.42 1.76-1.23 3.45-16.38 17.97-28.67 35.37-28.67 7.15 0 13.8 2.07 19.41 5.65z" style="fill:#d73735"/><path class="st8" d="M245.245 134.945c4.94-5.9 6.63-13.61 4.63-21.25-2.59-9.91-11.59-16.88-22-17.12 1.18-3.68 1.63-7.51 1.35-11.4-1.268-17.378-17.319-30.175-34.69-27.32-3.85-17.32-19.44-29.85-37.24-29.85-11.37 0-22.02 5-29.3 13.73-20.384-24.472-59.749-14.432-66.54 16.12-21.916-3.602-40.247 17.399-33.33 38.73-19.707.858-29.822 23.493-17.38 38.36-17.427 12.829-7.986 40.11 13.72 40.11h187.59c-1.96 9.11-7.12 23.2-20.15 42.34-3.923 5.76 2.902 13.011 9.16 9.82 19.605-9.992 52.271-49.725 53.23-73.52.28-7.4-3.1-14.37-9.05-18.75zm-45.99 88.71c-2.592 1.305-5.626-1.678-4.04-4.01 13.72-20.15 19.04-34.96 20.97-44.59 15.667 0 21.598 1.073 29.23-4.69-10.42 23.26-33.87 47.02-46.16 53.29zm51.04-70.12v.01c-.37 9.65-8.79 17.51-18.77 17.51H164.77c.299-1 .582-12.035-5.62-18.234-3.935-3.932-9.769-5.859-17.752-5.793-2.638.01-2.634 4 .008 4 22.237 0 18.603 16.862 19.55 20.027H24.465c-18.084 0-25.742-22.776-11.02-33.13.115-.086.23-.174.336-.269 10.469.121 17.159 11.272 12.365 20.545-1.213 2.348 2.338 4.188 3.554 1.837a18.108 18.108 0 0 0 1.905-6.399c9.09-.95 16.199-8.655 16.199-17.992 0-2.642-4-2.646-4 0 0 7.138-5.339 13.039-12.231 13.955-1.021-8.618-8.118-15.381-16.878-15.9-.594-1.421-5.435-5.526-5.4-13.837.04-10.588 8.909-19.3 19.91-19.3 2.266 0 3.786-2.251 3.03-4.33-2.103-5.787-2.128-12.369.275-18.387 13.452.074 18.843 6.303 18.797 19.437a2 2 0 0 0 4 .014c.051-14.663-6.451-22.64-20.825-23.399l.003-.005c5.575-9.089 16.099-13.927 26.73-12.03 1.88.34 3.67-.88 4.07-2.78 1.74-8.29 6.49-15.38 12.94-20.21l.001-.001c8.982 9.502 8.066 17.515-.981 26.5-1.876 1.863.943 4.702 2.818 2.838 10.377-10.305 11.582-20.604 1.538-31.576l.003-.002a34.035 34.035 0 0 1 43.65 8.06c.22.27.47.5.75.69.005.004.011.006.016.009.258 9.1 7.25 16.541 16.168 17.476.952 9.087 8.656 16.194 17.991 16.194a2 2 0 0 0 0-4c-7.138 0-13.039-5.339-13.955-12.231 8.971-1.063 15.955-8.703 15.955-17.955a2 2 0 0 0-4 0c0 7.771-6.322 14.093-14.093 14.093-7.61 0-13.815-6.068-14.069-13.617.264-.178.51-.404.716-.659 6.53-8.07 16.21-12.69 26.56-12.69 16.06 0 30.11 11.39 33.41 27.08.4 1.9 2.19 3.13 4.07 2.78 6.041-1.078 12.484-.055 18.235 3.483-.423 1.081.674 10.202-4.764 15.644-3.954 3.957-9.415 4.315-14.834 4.541-2.603 0-2.764 4 .169 4 14.584 0 22.594-6.482 23.23-21.31 5.154 4.736 7.964 10.902 8.424 17.242.655 8.919-2.943 10.717-.85 13.61a3.566 3.566 0 0 0 2.91 1.49c8.84 0 16.53 5.81 18.71 14.14 1.71 6.5.21 13.06-4.1 17.99a3.05 3.05 0 0 0-.429.615c-6.046-.201-10.427-1.695-13.318-4.583-3.08-3.077-4.564-7.927-4.541-14.827a2 2 0 0 0-1.993-2.007h-.007a2 2 0 0 0-2 1.993c-.027 8.021 1.841 13.8 5.713 17.67 3.731 3.729 9.17 5.606 16.556 5.764l.019.026c.18.22.4.41.64.58 5.092 3.58 7.992 9.41 7.752 15.61z"/><path class="st8" d="M203.423 105.962c-1.393-2.245-4.795-.141-3.4 2.108 3.762 6.066 2.335 13.894-3.039 18.305-5.655-7.112-15.799-8.976-23.667-4.096-2.25 1.394-.14 4.792 2.107 3.399a13.997 13.997 0 0 1 10.645-1.744c7.557 1.772 12.285 9.341 10.504 16.938a14.003 14.003 0 0 1-6.293 8.76c-2.234 1.384-.15 4.8 2.107 3.399 7.966-4.939 10.746-15.019 6.754-23.244 7.221-5.598 9.201-15.891 4.282-23.825zM152.134 123.068h-15.919v-9.189h15.919c2.642 0 2.646-4 0-4h-15.919v-9.189h15.919c2.642 0 2.646-4 0-4h-15.919v-6.684c0-3.86-3.14-7-7-7h-6.686V67.084c0-2.642-4-2.646-4 0v15.921h-9.189V67.084c0-2.642-4-2.646-4 0v15.921h-9.19V67.084c0-2.642-4-2.646-4 0v15.921h-6.685c-3.86 0-7 3.14-7 7v6.684h-15.92c-2.642 0-2.646 4 0 4h15.92v9.189h-15.92c-2.642 0-2.646 4 0 4h15.92v9.189h-15.92a2 2 0 0 0 0 4h15.92v6.687c0 3.86 3.14 7 7 7h6.685v15.918c0 2.642 4 2.646 4 0v-15.918h9.189v15.918c0 2.642 4 2.646 4 0v-15.918h9.189v15.918c0 2.642 4 2.646 4 0v-15.918h6.686c3.86 0 7-3.14 7-7v-6.687h15.919a2 2 0 0 0 .001-3.999zm-19.919 10.687c0 1.65-1.34 3-3 3h-43.75c-1.66 0-3-1.35-3-3v-43.75c0-1.66 1.34-3 3-3h43.75c1.66 0 3 1.34 3 3v43.75z"/><path class="st8" d="M119.635 92.585h-24.59c-3.86 0-7 3.14-7 7v24.59c0 3.86 3.14 7 7 7h24.59c3.86 0 7-3.14 7-7v-24.59c0-3.86-3.14-7-7-7zm3 31.59c0 1.65-1.35 3-3 3h-24.59c-1.66 0-3-1.35-3-3v-24.59c0-1.66 1.34-3 3-3h24.59c1.65 0 3 1.34 3 3v24.59z"/></svg>